<svg width="128" height="128" viewBox="0 0 128 128" fill="none" xmlns="http://www.w3.org/2000/svg">
  <rect width="128" height="128" rx="32" fill="#0A0A0F"/>
  <path d="M22 64C22 42.4609 39.4609 25 61 25H67C88.5391 25 106 42.4609 106 64C106 85.5391 88.5391 103 67 103H61C39.4609 103 22 85.5391 22 64Z" fill="url(#paint0_linear_1_2)"/>
  <path d="M39 53C39 47.4772 43.4772 43 49 43H54C59.5228 43 64 47.4772 64 53V75C64 80.5228 59.5228 85 54 85H49C43.4772 85 39 80.5228 39 75V53Z" fill="#0A0A0F" fill-opacity="0.34"/>
  <path d="M64 53C64 47.4772 68.4772 43 74 43H79C84.5228 43 89 47.4772 89 53V75C89 80.5228 84.5228 85 79 85H74C68.4772 85 64 80.5228 64 75V53Z" fill="#0A0A0F" fill-opacity="0.34"/>
  <circle cx="48" cy="42" r="16" fill="url(#paint1_radial_1_2)" fill-opacity="0.95"/>
  <circle cx="83" cy="44" r="18" fill="url(#paint2_radial_1_2)" fill-opacity="0.75"/>
  <defs>
    <linearGradient id="paint0_linear_1_2" x1="30" y1="32" x2="103" y2="100" gradientUnits="userSpaceOnUse">
      <stop stop-color="#56B6FF"/>
      <stop offset="0.36" stop-color="#845CFF"/>
      <stop offset="0.7" stop-color="#E05CFF"/>
      <stop offset="1" stop-color="#FF7EB6"/>
    </linearGradient>
    <radialGradient id="paint1_radial_1_2" cx="0" cy="0" r="1" gradientUnits="userSpaceOnUse" gradientTransform="translate(48 42) rotate(90) scale(16)">
      <stop stop-color="white"/>
      <stop offset="1" stop-color="white" stop-opacity="0"/>
    </radialGradient>
    <radialGradient id="paint2_radial_1_2" cx="0" cy="0" r="1" gradientUnits="userSpaceOnUse" gradientTransform="translate(83 44) rotate(90) scale(18)">
      <stop stop-color="#FFD7FF"/>
      <stop offset="1" stop-color="#FFD7FF" stop-opacity="0"/>
    </radialGradient>
  </defs>
</svg>
